#tb 0: 1/15
#tb 1: 1/22222
0,          0,          0,        1,   188892, 0xcb5be3dd
1,          0,          0,     8186,    16372, 0xfaaab59d
0,          1,          1,        1,   188892, 0x0f313ebc
0,          2,          2,        1,   188892, 0xc0da25cc
0,          3,          3,        1,   188892, 0xad6e1d44
0,          4,          4,        1,   188892, 0xb1103b40
0,          5,          5,        1,   188892, 0xae033450
1,       8186,       8186,     2014,     4028, 0xc2daed72
0,          6,          6,        1,   188892, 0xb31f03b4
1,      10200,      10200,     2743,     5486, 0xf7fd794d
0,          7,          7,        1,   188892, 0xacb2d3f9
0,          8,          8,        1,   188892, 0x7d77ecbd
1,      12943,      12943,     2895,     5790, 0xfd5a369f
0,          9,          9,        1,   188892, 0x7faa2f6c
0,         10,         10,        1,   188892, 0x28f4fdf1
1,      15838,      15838,      534,     1068, 0x0b602cd0
0,         11,         11,        1,   188892, 0x4b53f3b9
1,      16372,      16372,     2454,     4908, 0xfe870aad
0,         12,         12,        1,   188892, 0x1f09bb29
1,      18826,      18826,     3031,     6062, 0x8a4d6e0f
0,         13,         13,        1,   188892, 0x3afcc11d
0,         14,         14,        1,   188892, 0x6b918e49
1,      21857,      21857,     2701,     5402, 0x71fd352f
0,         15,         15,        1,   188892, 0x9630a04d
0,         16,         16,        1,   188892, 0x9381b4c1
1,      24558,      24558,      272,      544, 0xeb766d34
1,      24830,      24830,     2953,     5906, 0x47ac7e08
0,         17,         17,        1,   188892, 0xa7dea7e5
0,         18,         18,        1,   188892, 0xd277c41d
1,      27783,      27783,     2958,     5916, 0x0d26eb56
0,         19,         19,        1,   188892, 0xafa2a6c9
0,         20,         20,        1,   188892, 0x13a38839
1,      30741,      30741,     2003,     4006, 0x9941c71a
0,         21,         21,        1,   188892, 0xcd5e5a6d
0,         22,         22,        1,   188892, 0xe7da71e9
1,      32744,      32744,     1050,     2100, 0xc9a2ee36
1,      33794,      33794,     2947,     5894, 0xd2ba4eaa
0,         23,         23,        1,   188892, 0x06928add
0,         24,         24,        1,   188892, 0x4a108eb9
1,      36741,      36741,     3045,     6090, 0xf43e73d0
0,         25,         25,        1,   188892, 0xea2598f5
0,         26,         26,        1,   188892, 0x17ed6839
1,      39786,      39786,     1144,     2288, 0x5a8b7aa0
0,         27,         27,        1,   188892, 0x9de6ab65
1,      40930,      40930,     1925,     3850, 0x7f66eb2c
0,         28,         28,        1,   188892, 0xb4ee326f
1,      42855,      42855,     2898,     5796, 0xc5cf3ee8
0,         29,         29,        1,   188892, 0x3f85095b
0,         30,         30,        1,   188892, 0xaab7e331
1,      45753,      45753,     3021,     6042, 0xed80136d
0,         31,         31,        1,   188892, 0xc2a079e1
0,         32,         32,        1,   188892, 0x612080c2
1,      48774,      48774,      342,      684, 0xc42bd137
0,         33,         33,        1,   188892, 0xa7232d47
1,      49116,      49116,     2718,     5436, 0xb7f8a6fd
0,         34,         34,        1,   188892, 0xc053297d
1,      51834,      51834,     3049,     6098, 0xee6354a2
0,         35,         35,        1,   188892, 0x1ecc3bfe
0,         36,         36,        1,   188892, 0xcc4ac803
0,         37,         37,        1,   188892, 0x4b90047b
1,      54883,      54883,     2419,     4838, 0x129e61d0
0,         38,         38,        1,   188892, 0xd863b643
1,      57302,      57302,      537,     1074, 0x9da90634
0,         39,         39,        1,   188892, 0x93a25fb1
1,      57839,      57839,     3042,     6084, 0x8ffed952
0,         40,         40,        1,   188892, 0xf969e131
0,         41,         41,        1,   188892, 0x73bd2469
1,      60881,      60881,     3019,     6038, 0xa07b4276
0,         42,         42,        1,   188892, 0x265a9ce2
0,         43,         43,        1,   188892, 0xd59ccd39
1,      63900,      63900,     1588,     3176, 0xebef63c1
0,         44,         44,        1,   188892, 0xe50fc068
1,      65488,      65488,     1397,     2794, 0xbe1000db
0,         45,         45,        1,   188892, 0x83113a86
1,      66885,      66885,     3010,     6020, 0xd8e34961
0,         46,         46,        1,   188892, 0xa0203504
0,         47,         47,        1,   188892, 0x9e2d518c
1,      69895,      69895,     3010,     6020, 0xc07cf461
0,         48,         48,        1,   188892, 0x5f610e66
0,         49,         49,        1,   188892, 0x9b77f900
1,      72905,      72905,      769,     1538, 0xc975ae02
1,      73674,      73674,     2115,     4230, 0x0827111b
0,         50,         50,        1,   188892, 0xaaf279c2
0,         51,         51,        1,   188892, 0x4ac97cc2
1,      75789,      75789,     3042,     6084, 0x2cf0a407
0,         52,         52,        1,   188892, 0xddd91642
0,         53,         53,        1,   188892, 0x4f32dcd1
1,      78831,      78831,     2914,     5828, 0x12750279
0,         54,         54,        1,   188892, 0xdc126b42
0,         55,         55,        1,   188892, 0x00000000
1,      81745,      81745,      115,      230, 0xc9c03f3b
1,      81860,      81860,      384,      768, 0x6137a04d
